<mxfile host="app.diagrams.net" agent="Mozilla/5.0 (Windows NT 10.0; Win64; x64) AppleWebKit/537.36 (KHTML, like Gecko) Chrome/140.0.0.0 Safari/537.36" version="28.2.1">
  <diagram name="Página-1" id="gP08L72Hn2s0kHgSDx4x">
    <mxGraphModel dx="1281" dy="568" grid="1" gridSize="10" guides="1" tooltips="1" connect="1" arrows="1" fold="1" page="1" pageScale="1" pageWidth="827" pageHeight="1169" math="0" shadow="0">
      <root>
        <mxCell id="VeLv6RaSljvd2OSAynk0-0" />
        <mxCell id="VeLv6RaSljvd2OSAynk0-1" parent="VeLv6RaSljvd2OSAynk0-0" />
        <mxCell id="2uPIt1E3CVrj-p5gXUnj-0" value="Usuario" style="rounded=0;whiteSpace=wrap;html=1;" vertex="1" parent="VeLv6RaSljvd2OSAynk0-1">
          <mxGeometry x="2040" y="750" width="138" height="40" as="geometry" />
        </mxCell>
        <mxCell id="2uPIt1E3CVrj-p5gXUnj-1" value="Id_usuario (PK)" style="ellipse;whiteSpace=wrap;html=1;" vertex="1" parent="VeLv6RaSljvd2OSAynk0-1">
          <mxGeometry x="1930" y="680" width="80" height="40" as="geometry" />
        </mxCell>
        <mxCell id="2uPIt1E3CVrj-p5gXUnj-2" value="Nombre" style="ellipse;whiteSpace=wrap;html=1;" vertex="1" parent="VeLv6RaSljvd2OSAynk0-1">
          <mxGeometry x="2010" y="655" width="68" height="30" as="geometry" />
        </mxCell>
        <mxCell id="2uPIt1E3CVrj-p5gXUnj-3" style="edgeStyle=orthogonalEdgeStyle;rounded=0;orthogonalLoop=1;jettySize=auto;html=1;exitX=0;exitY=1;exitDx=0;exitDy=0;entryX=0.75;entryY=0;entryDx=0;entryDy=0;" edge="1" parent="VeLv6RaSljvd2OSAynk0-1" source="2uPIt1E3CVrj-p5gXUnj-4" target="2uPIt1E3CVrj-p5gXUnj-0">
          <mxGeometry relative="1" as="geometry" />
        </mxCell>
        <mxCell id="2uPIt1E3CVrj-p5gXUnj-4" value="Apellido" style="ellipse;whiteSpace=wrap;html=1;" vertex="1" parent="VeLv6RaSljvd2OSAynk0-1">
          <mxGeometry x="2138" y="670.5" width="60" height="30" as="geometry" />
        </mxCell>
        <mxCell id="2uPIt1E3CVrj-p5gXUnj-5" value="Estado" style="ellipse;whiteSpace=wrap;html=1;" vertex="1" parent="VeLv6RaSljvd2OSAynk0-1">
          <mxGeometry x="2198" y="820" width="60" height="30" as="geometry" />
        </mxCell>
        <mxCell id="2uPIt1E3CVrj-p5gXUnj-6" style="edgeStyle=orthogonalEdgeStyle;rounded=0;orthogonalLoop=1;jettySize=auto;html=1;exitX=0;exitY=0.5;exitDx=0;exitDy=0;entryX=1;entryY=0;entryDx=0;entryDy=0;" edge="1" parent="VeLv6RaSljvd2OSAynk0-1" source="2uPIt1E3CVrj-p5gXUnj-7" target="2uPIt1E3CVrj-p5gXUnj-0">
          <mxGeometry relative="1" as="geometry" />
        </mxCell>
        <mxCell id="2uPIt1E3CVrj-p5gXUnj-7" value="Contraseña" style="ellipse;whiteSpace=wrap;html=1;" vertex="1" parent="VeLv6RaSljvd2OSAynk0-1">
          <mxGeometry x="2210" y="710" width="70" height="30" as="geometry" />
        </mxCell>
        <mxCell id="2uPIt1E3CVrj-p5gXUnj-8" style="edgeStyle=orthogonalEdgeStyle;rounded=0;orthogonalLoop=1;jettySize=auto;html=1;exitX=1;exitY=0;exitDx=0;exitDy=0;entryX=0;entryY=0.75;entryDx=0;entryDy=0;" edge="1" parent="VeLv6RaSljvd2OSAynk0-1" source="2uPIt1E3CVrj-p5gXUnj-9" target="2uPIt1E3CVrj-p5gXUnj-0">
          <mxGeometry relative="1" as="geometry" />
        </mxCell>
        <mxCell id="2uPIt1E3CVrj-p5gXUnj-9" value="Rol" style="ellipse;whiteSpace=wrap;html=1;" vertex="1" parent="VeLv6RaSljvd2OSAynk0-1">
          <mxGeometry x="1950" y="790" width="60" height="30" as="geometry" />
        </mxCell>
        <mxCell id="2uPIt1E3CVrj-p5gXUnj-10" value="Fecha_registro" style="ellipse;whiteSpace=wrap;html=1;" vertex="1" parent="VeLv6RaSljvd2OSAynk0-1">
          <mxGeometry x="2093" y="860" width="98" height="30" as="geometry" />
        </mxCell>
        <mxCell id="2uPIt1E3CVrj-p5gXUnj-11" value="Pertenece" style="strokeWidth=2;html=1;shape=mxgraph.flowchart.decision;whiteSpace=wrap;" vertex="1" parent="VeLv6RaSljvd2OSAynk0-1">
          <mxGeometry x="800" y="741.75" width="90" height="57.5" as="geometry" />
        </mxCell>
        <mxCell id="2uPIt1E3CVrj-p5gXUnj-12" value="Realiza" style="strokeWidth=2;html=1;shape=mxgraph.flowchart.decision;whiteSpace=wrap;" vertex="1" parent="VeLv6RaSljvd2OSAynk0-1">
          <mxGeometry x="2280" y="745" width="60" height="50" as="geometry" />
        </mxCell>
        <mxCell id="2uPIt1E3CVrj-p5gXUnj-13" value="" style="endArrow=none;html=1;rounded=0;" edge="1" parent="VeLv6RaSljvd2OSAynk0-1">
          <mxGeometry relative="1" as="geometry">
            <mxPoint x="2178" y="769.5" as="sourcePoint" />
            <mxPoint x="2280" y="770" as="targetPoint" />
          </mxGeometry>
        </mxCell>
        <mxCell id="2uPIt1E3CVrj-p5gXUnj-14" value="Venta" style="rounded=0;whiteSpace=wrap;html=1;" vertex="1" parent="VeLv6RaSljvd2OSAynk0-1">
          <mxGeometry x="2420" y="750" width="128" height="40" as="geometry" />
        </mxCell>
        <mxCell id="2uPIt1E3CVrj-p5gXUnj-15" style="edgeStyle=orthogonalEdgeStyle;rounded=0;orthogonalLoop=1;jettySize=auto;html=1;exitX=0;exitY=0.5;exitDx=0;exitDy=0;entryX=0.5;entryY=1;entryDx=0;entryDy=0;" edge="1" parent="VeLv6RaSljvd2OSAynk0-1" source="2uPIt1E3CVrj-p5gXUnj-5" target="2uPIt1E3CVrj-p5gXUnj-0">
          <mxGeometry relative="1" as="geometry" />
        </mxCell>
        <mxCell id="2uPIt1E3CVrj-p5gXUnj-16" value="Inventario" style="rounded=0;whiteSpace=wrap;html=1;" vertex="1" parent="VeLv6RaSljvd2OSAynk0-1">
          <mxGeometry x="1727" y="455" width="128" height="40" as="geometry" />
        </mxCell>
        <mxCell id="2uPIt1E3CVrj-p5gXUnj-17" value="Realiza" style="strokeWidth=2;html=1;shape=mxgraph.flowchart.decision;whiteSpace=wrap;" vertex="1" parent="VeLv6RaSljvd2OSAynk0-1">
          <mxGeometry x="2078" y="450" width="60" height="50" as="geometry" />
        </mxCell>
        <mxCell id="2uPIt1E3CVrj-p5gXUnj-18" value="" style="endArrow=none;html=1;rounded=0;exitX=0.5;exitY=0;exitDx=0;exitDy=0;entryX=0.5;entryY=1;entryDx=0;entryDy=0;entryPerimeter=0;" edge="1" parent="VeLv6RaSljvd2OSAynk0-1" source="2uPIt1E3CVrj-p5gXUnj-0" target="2uPIt1E3CVrj-p5gXUnj-17">
          <mxGeometry relative="1" as="geometry">
            <mxPoint x="2260" y="880" as="sourcePoint" />
            <mxPoint x="2362" y="880.5" as="targetPoint" />
          </mxGeometry>
        </mxCell>
        <mxCell id="2uPIt1E3CVrj-p5gXUnj-19" value="" style="endArrow=none;html=1;rounded=0;exitX=1;exitY=0.5;exitDx=0;exitDy=0;exitPerimeter=0;entryX=0;entryY=1;entryDx=0;entryDy=0;" edge="1" parent="VeLv6RaSljvd2OSAynk0-1" source="2uPIt1E3CVrj-p5gXUnj-131" target="2uPIt1E3CVrj-p5gXUnj-0">
          <mxGeometry relative="1" as="geometry">
            <mxPoint x="2276" y="1390" as="sourcePoint" />
            <mxPoint x="2378" y="1390.5" as="targetPoint" />
            <Array as="points">
              <mxPoint x="2040" y="1425" />
            </Array>
          </mxGeometry>
        </mxCell>
        <mxCell id="2uPIt1E3CVrj-p5gXUnj-20" value="" style="endArrow=none;html=1;rounded=0;exitX=1;exitY=0.5;exitDx=0;exitDy=0;exitPerimeter=0;entryX=0;entryY=0.5;entryDx=0;entryDy=0;" edge="1" parent="VeLv6RaSljvd2OSAynk0-1" source="2uPIt1E3CVrj-p5gXUnj-12" target="2uPIt1E3CVrj-p5gXUnj-14">
          <mxGeometry relative="1" as="geometry">
            <mxPoint x="2360" y="870" as="sourcePoint" />
            <mxPoint x="2462" y="870.5" as="targetPoint" />
          </mxGeometry>
        </mxCell>
        <mxCell id="2uPIt1E3CVrj-p5gXUnj-21" value="Productos" style="rounded=0;whiteSpace=wrap;html=1;" vertex="1" parent="VeLv6RaSljvd2OSAynk0-1">
          <mxGeometry x="1110" y="750.5" width="128" height="40" as="geometry" />
        </mxCell>
        <mxCell id="2uPIt1E3CVrj-p5gXUnj-22" value="Categoría" style="rounded=0;whiteSpace=wrap;html=1;" vertex="1" parent="VeLv6RaSljvd2OSAynk0-1">
          <mxGeometry x="560" y="747.5" width="128" height="40" as="geometry" />
        </mxCell>
        <mxCell id="2uPIt1E3CVrj-p5gXUnj-23" value="Proveedor" style="rounded=0;whiteSpace=wrap;html=1;" vertex="1" parent="VeLv6RaSljvd2OSAynk0-1">
          <mxGeometry x="1110" y="370" width="128" height="40" as="geometry" />
        </mxCell>
        <mxCell id="2uPIt1E3CVrj-p5gXUnj-24" value="Compra" style="rounded=0;whiteSpace=wrap;html=1;" vertex="1" parent="VeLv6RaSljvd2OSAynk0-1">
          <mxGeometry x="1590" y="750" width="128" height="40" as="geometry" />
        </mxCell>
        <mxCell id="2uPIt1E3CVrj-p5gXUnj-25" value="Detalle_compra" style="rounded=0;whiteSpace=wrap;html=1;" vertex="1" parent="VeLv6RaSljvd2OSAynk0-1">
          <mxGeometry x="1590" y="1110" width="128" height="40" as="geometry" />
        </mxCell>
        <mxCell id="2uPIt1E3CVrj-p5gXUnj-26" value="Detalle_venta" style="rounded=0;whiteSpace=wrap;html=1;" vertex="1" parent="VeLv6RaSljvd2OSAynk0-1">
          <mxGeometry x="2416" y="1180" width="128" height="40" as="geometry" />
        </mxCell>
        <mxCell id="2uPIt1E3CVrj-p5gXUnj-27" value="Id_venta (PK)" style="ellipse;whiteSpace=wrap;html=1;" vertex="1" parent="VeLv6RaSljvd2OSAynk0-1">
          <mxGeometry x="2348" y="675" width="80" height="40" as="geometry" />
        </mxCell>
        <mxCell id="2uPIt1E3CVrj-p5gXUnj-28" style="edgeStyle=orthogonalEdgeStyle;rounded=0;orthogonalLoop=1;jettySize=auto;html=1;exitX=0.5;exitY=1;exitDx=0;exitDy=0;entryX=0.078;entryY=-0.025;entryDx=0;entryDy=0;entryPerimeter=0;" edge="1" parent="VeLv6RaSljvd2OSAynk0-1" source="2uPIt1E3CVrj-p5gXUnj-27" target="2uPIt1E3CVrj-p5gXUnj-14">
          <mxGeometry relative="1" as="geometry" />
        </mxCell>
        <mxCell id="2uPIt1E3CVrj-p5gXUnj-29" style="edgeStyle=orthogonalEdgeStyle;rounded=0;orthogonalLoop=1;jettySize=auto;html=1;exitX=0;exitY=1;exitDx=0;exitDy=0;entryX=0.195;entryY=0.05;entryDx=0;entryDy=0;entryPerimeter=0;" edge="1" parent="VeLv6RaSljvd2OSAynk0-1" source="2uPIt1E3CVrj-p5gXUnj-30" target="2uPIt1E3CVrj-p5gXUnj-14">
          <mxGeometry relative="1" as="geometry" />
        </mxCell>
        <mxCell id="2uPIt1E3CVrj-p5gXUnj-30" value="Fecha" style="ellipse;whiteSpace=wrap;html=1;" vertex="1" parent="VeLv6RaSljvd2OSAynk0-1">
          <mxGeometry x="2428" y="645" width="72" height="35" as="geometry" />
        </mxCell>
        <mxCell id="2uPIt1E3CVrj-p5gXUnj-31" style="edgeStyle=orthogonalEdgeStyle;rounded=0;orthogonalLoop=1;jettySize=auto;html=1;exitX=0;exitY=0;exitDx=0;exitDy=0;entryX=0;entryY=0.75;entryDx=0;entryDy=0;" edge="1" parent="VeLv6RaSljvd2OSAynk0-1" source="2uPIt1E3CVrj-p5gXUnj-32" target="2uPIt1E3CVrj-p5gXUnj-14">
          <mxGeometry relative="1" as="geometry" />
        </mxCell>
        <mxCell id="2uPIt1E3CVrj-p5gXUnj-32" value="Id_usuario (FK)" style="ellipse;whiteSpace=wrap;html=1;" vertex="1" parent="VeLv6RaSljvd2OSAynk0-1">
          <mxGeometry x="2378" y="830" width="80" height="40" as="geometry" />
        </mxCell>
        <mxCell id="2uPIt1E3CVrj-p5gXUnj-33" value="Total" style="ellipse;whiteSpace=wrap;html=1;" vertex="1" parent="VeLv6RaSljvd2OSAynk0-1">
          <mxGeometry x="2530" y="710" width="60" height="30" as="geometry" />
        </mxCell>
        <mxCell id="2uPIt1E3CVrj-p5gXUnj-34" value="Hora" style="ellipse;whiteSpace=wrap;html=1;" vertex="1" parent="VeLv6RaSljvd2OSAynk0-1">
          <mxGeometry x="2510" y="675" width="60" height="30" as="geometry" />
        </mxCell>
        <mxCell id="2uPIt1E3CVrj-p5gXUnj-35" style="edgeStyle=orthogonalEdgeStyle;rounded=0;orthogonalLoop=1;jettySize=auto;html=1;exitX=0;exitY=0.5;exitDx=0;exitDy=0;entryX=0.43;entryY=0.025;entryDx=0;entryDy=0;entryPerimeter=0;" edge="1" parent="VeLv6RaSljvd2OSAynk0-1" source="2uPIt1E3CVrj-p5gXUnj-34" target="2uPIt1E3CVrj-p5gXUnj-14">
          <mxGeometry relative="1" as="geometry" />
        </mxCell>
        <mxCell id="2uPIt1E3CVrj-p5gXUnj-36" style="edgeStyle=orthogonalEdgeStyle;rounded=0;orthogonalLoop=1;jettySize=auto;html=1;exitX=0;exitY=0.5;exitDx=0;exitDy=0;entryX=0.672;entryY=-0.05;entryDx=0;entryDy=0;entryPerimeter=0;" edge="1" parent="VeLv6RaSljvd2OSAynk0-1" source="2uPIt1E3CVrj-p5gXUnj-33" target="2uPIt1E3CVrj-p5gXUnj-14">
          <mxGeometry relative="1" as="geometry" />
        </mxCell>
        <mxCell id="2uPIt1E3CVrj-p5gXUnj-37" style="edgeStyle=orthogonalEdgeStyle;rounded=0;orthogonalLoop=1;jettySize=auto;html=1;exitX=0;exitY=0;exitDx=0;exitDy=0;entryX=0.75;entryY=1;entryDx=0;entryDy=0;" edge="1" parent="VeLv6RaSljvd2OSAynk0-1" source="2uPIt1E3CVrj-p5gXUnj-38" target="2uPIt1E3CVrj-p5gXUnj-14">
          <mxGeometry relative="1" as="geometry" />
        </mxCell>
        <mxCell id="2uPIt1E3CVrj-p5gXUnj-38" value="Metodo_pago" style="ellipse;whiteSpace=wrap;html=1;" vertex="1" parent="VeLv6RaSljvd2OSAynk0-1">
          <mxGeometry x="2530" y="820" width="90" height="30" as="geometry" />
        </mxCell>
        <mxCell id="2uPIt1E3CVrj-p5gXUnj-39" value="Incluye" style="strokeWidth=2;html=1;shape=mxgraph.flowchart.decision;whiteSpace=wrap;" vertex="1" parent="VeLv6RaSljvd2OSAynk0-1">
          <mxGeometry x="2450" y="990" width="60" height="50" as="geometry" />
        </mxCell>
        <mxCell id="2uPIt1E3CVrj-p5gXUnj-40" value="" style="endArrow=none;html=1;rounded=0;" edge="1" parent="VeLv6RaSljvd2OSAynk0-1" target="2uPIt1E3CVrj-p5gXUnj-39">
          <mxGeometry relative="1" as="geometry">
            <mxPoint x="2480" y="790" as="sourcePoint" />
            <mxPoint x="2742" y="900.5" as="targetPoint" />
          </mxGeometry>
        </mxCell>
        <mxCell id="2uPIt1E3CVrj-p5gXUnj-41" value="" style="endArrow=none;html=1;rounded=0;exitX=0.5;exitY=1;exitDx=0;exitDy=0;exitPerimeter=0;entryX=0.5;entryY=0;entryDx=0;entryDy=0;" edge="1" parent="VeLv6RaSljvd2OSAynk0-1" source="2uPIt1E3CVrj-p5gXUnj-39" target="2uPIt1E3CVrj-p5gXUnj-26">
          <mxGeometry relative="1" as="geometry">
            <mxPoint x="2730" y="830" as="sourcePoint" />
            <mxPoint x="2832" y="830.5" as="targetPoint" />
          </mxGeometry>
        </mxCell>
        <mxCell id="2uPIt1E3CVrj-p5gXUnj-42" value="Suministra" style="strokeWidth=2;html=1;shape=mxgraph.flowchart.decision;whiteSpace=wrap;" vertex="1" parent="VeLv6RaSljvd2OSAynk0-1">
          <mxGeometry x="1129" y="500" width="90" height="60" as="geometry" />
        </mxCell>
        <mxCell id="2uPIt1E3CVrj-p5gXUnj-43" value="" style="endArrow=none;html=1;rounded=0;exitX=0.5;exitY=1;exitDx=0;exitDy=0;entryX=0.5;entryY=0;entryDx=0;entryDy=0;entryPerimeter=0;" edge="1" parent="VeLv6RaSljvd2OSAynk0-1" source="2uPIt1E3CVrj-p5gXUnj-23" target="2uPIt1E3CVrj-p5gXUnj-42">
          <mxGeometry relative="1" as="geometry">
            <mxPoint x="1140" y="910" as="sourcePoint" />
            <mxPoint x="1174" y="500" as="targetPoint" />
          </mxGeometry>
        </mxCell>
        <mxCell id="2uPIt1E3CVrj-p5gXUnj-44" value="" style="endArrow=none;html=1;rounded=0;exitX=0.5;exitY=1;exitDx=0;exitDy=0;exitPerimeter=0;entryX=0.5;entryY=0;entryDx=0;entryDy=0;" edge="1" parent="VeLv6RaSljvd2OSAynk0-1" source="2uPIt1E3CVrj-p5gXUnj-42" target="2uPIt1E3CVrj-p5gXUnj-21">
          <mxGeometry relative="1" as="geometry">
            <mxPoint x="1180" y="683" as="sourcePoint" />
            <mxPoint x="1282" y="683.5" as="targetPoint" />
          </mxGeometry>
        </mxCell>
        <mxCell id="2uPIt1E3CVrj-p5gXUnj-45" value="Historial_precios" style="rounded=0;whiteSpace=wrap;html=1;" vertex="1" parent="VeLv6RaSljvd2OSAynk0-1">
          <mxGeometry x="1110" y="1214" width="128" height="40" as="geometry" />
        </mxCell>
        <mxCell id="2uPIt1E3CVrj-p5gXUnj-46" value="Tiene" style="strokeWidth=2;html=1;shape=mxgraph.flowchart.decision;whiteSpace=wrap;" vertex="1" parent="VeLv6RaSljvd2OSAynk0-1">
          <mxGeometry x="1144" y="1060" width="60" height="50" as="geometry" />
        </mxCell>
        <mxCell id="2uPIt1E3CVrj-p5gXUnj-47" value="" style="endArrow=none;html=1;rounded=0;exitX=0.5;exitY=1;exitDx=0;exitDy=0;" edge="1" parent="VeLv6RaSljvd2OSAynk0-1" source="2uPIt1E3CVrj-p5gXUnj-21" target="2uPIt1E3CVrj-p5gXUnj-46">
          <mxGeometry relative="1" as="geometry">
            <mxPoint x="1250" y="1023" as="sourcePoint" />
            <mxPoint x="1352" y="1023.5" as="targetPoint" />
          </mxGeometry>
        </mxCell>
        <mxCell id="2uPIt1E3CVrj-p5gXUnj-48" value="" style="endArrow=none;html=1;rounded=0;entryX=0;entryY=0.5;entryDx=0;entryDy=0;entryPerimeter=0;exitX=1;exitY=0.5;exitDx=0;exitDy=0;" edge="1" parent="VeLv6RaSljvd2OSAynk0-1" source="2uPIt1E3CVrj-p5gXUnj-21" target="2uPIt1E3CVrj-p5gXUnj-88">
          <mxGeometry relative="1" as="geometry">
            <mxPoint x="1220" y="1250" as="sourcePoint" />
            <mxPoint x="1322" y="1250.5" as="targetPoint" />
          </mxGeometry>
        </mxCell>
        <mxCell id="2uPIt1E3CVrj-p5gXUnj-49" value="" style="endArrow=none;html=1;rounded=0;entryX=0;entryY=0.5;entryDx=0;entryDy=0;entryPerimeter=0;exitX=1;exitY=0.5;exitDx=0;exitDy=0;" edge="1" parent="VeLv6RaSljvd2OSAynk0-1" source="2uPIt1E3CVrj-p5gXUnj-24" target="2uPIt1E3CVrj-p5gXUnj-84">
          <mxGeometry relative="1" as="geometry">
            <mxPoint x="1610" y="1060" as="sourcePoint" />
            <mxPoint x="1712" y="1060.5" as="targetPoint" />
          </mxGeometry>
        </mxCell>
        <mxCell id="2uPIt1E3CVrj-p5gXUnj-50" value="" style="endArrow=none;html=1;rounded=0;exitX=0.5;exitY=1;exitDx=0;exitDy=0;exitPerimeter=0;entryX=0.5;entryY=0;entryDx=0;entryDy=0;" edge="1" parent="VeLv6RaSljvd2OSAynk0-1" source="2uPIt1E3CVrj-p5gXUnj-46" target="2uPIt1E3CVrj-p5gXUnj-45">
          <mxGeometry relative="1" as="geometry">
            <mxPoint x="1240" y="1280" as="sourcePoint" />
            <mxPoint x="1342" y="1280.5" as="targetPoint" />
          </mxGeometry>
        </mxCell>
        <mxCell id="2uPIt1E3CVrj-p5gXUnj-51" value="" style="endArrow=none;html=1;rounded=0;entryX=0;entryY=0.5;entryDx=0;entryDy=0;entryPerimeter=0;exitX=1;exitY=0.5;exitDx=0;exitDy=0;" edge="1" parent="VeLv6RaSljvd2OSAynk0-1" source="2uPIt1E3CVrj-p5gXUnj-22" target="2uPIt1E3CVrj-p5gXUnj-11">
          <mxGeometry relative="1" as="geometry">
            <mxPoint x="800" y="845.5" as="sourcePoint" />
            <mxPoint x="880" y="845.5" as="targetPoint" />
          </mxGeometry>
        </mxCell>
        <mxCell id="2uPIt1E3CVrj-p5gXUnj-52" value="" style="endArrow=none;html=1;rounded=0;entryX=0;entryY=0.5;entryDx=0;entryDy=0;exitX=1;exitY=0.5;exitDx=0;exitDy=0;exitPerimeter=0;" edge="1" parent="VeLv6RaSljvd2OSAynk0-1" source="2uPIt1E3CVrj-p5gXUnj-11" target="2uPIt1E3CVrj-p5gXUnj-21">
          <mxGeometry relative="1" as="geometry">
            <mxPoint x="1040" y="781" as="sourcePoint" />
            <mxPoint x="1150" y="853" as="targetPoint" />
          </mxGeometry>
        </mxCell>
        <mxCell id="2uPIt1E3CVrj-p5gXUnj-53" value="Id_categoria (PK)" style="ellipse;whiteSpace=wrap;html=1;" vertex="1" parent="VeLv6RaSljvd2OSAynk0-1">
          <mxGeometry x="580" y="673" width="90" height="47" as="geometry" />
        </mxCell>
        <mxCell id="2uPIt1E3CVrj-p5gXUnj-54" value="Nombre" style="ellipse;whiteSpace=wrap;html=1;" vertex="1" parent="VeLv6RaSljvd2OSAynk0-1">
          <mxGeometry x="550" y="833" width="80" height="30" as="geometry" />
        </mxCell>
        <mxCell id="2uPIt1E3CVrj-p5gXUnj-55" value="Descripción" style="ellipse;whiteSpace=wrap;html=1;" vertex="1" parent="VeLv6RaSljvd2OSAynk0-1">
          <mxGeometry x="640" y="828" width="80" height="40" as="geometry" />
        </mxCell>
        <mxCell id="2uPIt1E3CVrj-p5gXUnj-56" style="edgeStyle=orthogonalEdgeStyle;rounded=0;orthogonalLoop=1;jettySize=auto;html=1;exitX=0.5;exitY=1;exitDx=0;exitDy=0;entryX=0.4;entryY=0.046;entryDx=0;entryDy=0;entryPerimeter=0;" edge="1" parent="VeLv6RaSljvd2OSAynk0-1" source="2uPIt1E3CVrj-p5gXUnj-53" target="2uPIt1E3CVrj-p5gXUnj-22">
          <mxGeometry relative="1" as="geometry" />
        </mxCell>
        <mxCell id="2uPIt1E3CVrj-p5gXUnj-57" style="edgeStyle=orthogonalEdgeStyle;rounded=0;orthogonalLoop=1;jettySize=auto;html=1;exitX=0.5;exitY=0;exitDx=0;exitDy=0;entryX=0.833;entryY=0.931;entryDx=0;entryDy=0;entryPerimeter=0;" edge="1" parent="VeLv6RaSljvd2OSAynk0-1" source="2uPIt1E3CVrj-p5gXUnj-55" target="2uPIt1E3CVrj-p5gXUnj-22">
          <mxGeometry relative="1" as="geometry" />
        </mxCell>
        <mxCell id="2uPIt1E3CVrj-p5gXUnj-58" style="edgeStyle=orthogonalEdgeStyle;rounded=0;orthogonalLoop=1;jettySize=auto;html=1;exitX=0.5;exitY=0;exitDx=0;exitDy=0;entryX=0.172;entryY=0.969;entryDx=0;entryDy=0;entryPerimeter=0;" edge="1" parent="VeLv6RaSljvd2OSAynk0-1" source="2uPIt1E3CVrj-p5gXUnj-54" target="2uPIt1E3CVrj-p5gXUnj-22">
          <mxGeometry relative="1" as="geometry" />
        </mxCell>
        <mxCell id="2uPIt1E3CVrj-p5gXUnj-59" style="edgeStyle=orthogonalEdgeStyle;rounded=0;orthogonalLoop=1;jettySize=auto;html=1;exitX=0.5;exitY=1;exitDx=0;exitDy=0;entryX=0;entryY=0.75;entryDx=0;entryDy=0;" edge="1" parent="VeLv6RaSljvd2OSAynk0-1" source="2uPIt1E3CVrj-p5gXUnj-60" target="2uPIt1E3CVrj-p5gXUnj-23">
          <mxGeometry relative="1" as="geometry" />
        </mxCell>
        <mxCell id="2uPIt1E3CVrj-p5gXUnj-60" value="Id_proveedor (PK)" style="ellipse;whiteSpace=wrap;html=1;" vertex="1" parent="VeLv6RaSljvd2OSAynk0-1">
          <mxGeometry x="1010" y="300" width="110" height="40" as="geometry" />
        </mxCell>
        <mxCell id="2uPIt1E3CVrj-p5gXUnj-61" value="Producto_suminitrados" style="ellipse;whiteSpace=wrap;html=1;" vertex="1" parent="VeLv6RaSljvd2OSAynk0-1">
          <mxGeometry x="1280" y="330" width="140" height="50" as="geometry" />
        </mxCell>
        <mxCell id="2uPIt1E3CVrj-p5gXUnj-62" value="Contacto" style="ellipse;whiteSpace=wrap;html=1;" vertex="1" parent="VeLv6RaSljvd2OSAynk0-1">
          <mxGeometry x="1250" y="270" width="80" height="40" as="geometry" />
        </mxCell>
        <mxCell id="2uPIt1E3CVrj-p5gXUnj-63" value="Nombre" style="ellipse;whiteSpace=wrap;html=1;" vertex="1" parent="VeLv6RaSljvd2OSAynk0-1">
          <mxGeometry x="1124" y="250" width="80" height="40" as="geometry" />
        </mxCell>
        <mxCell id="2uPIt1E3CVrj-p5gXUnj-64" style="edgeStyle=orthogonalEdgeStyle;rounded=0;orthogonalLoop=1;jettySize=auto;html=1;exitX=0.5;exitY=1;exitDx=0;exitDy=0;entryX=0.426;entryY=0.042;entryDx=0;entryDy=0;entryPerimeter=0;" edge="1" parent="VeLv6RaSljvd2OSAynk0-1" source="2uPIt1E3CVrj-p5gXUnj-63" target="2uPIt1E3CVrj-p5gXUnj-23">
          <mxGeometry relative="1" as="geometry" />
        </mxCell>
        <mxCell id="2uPIt1E3CVrj-p5gXUnj-65" style="edgeStyle=orthogonalEdgeStyle;rounded=0;orthogonalLoop=1;jettySize=auto;html=1;exitX=0;exitY=0.5;exitDx=0;exitDy=0;entryX=1;entryY=0.25;entryDx=0;entryDy=0;" edge="1" parent="VeLv6RaSljvd2OSAynk0-1" source="2uPIt1E3CVrj-p5gXUnj-61" target="2uPIt1E3CVrj-p5gXUnj-23">
          <mxGeometry relative="1" as="geometry" />
        </mxCell>
        <mxCell id="2uPIt1E3CVrj-p5gXUnj-66" style="edgeStyle=orthogonalEdgeStyle;rounded=0;orthogonalLoop=1;jettySize=auto;html=1;exitX=0;exitY=0.5;exitDx=0;exitDy=0;entryX=1;entryY=0;entryDx=0;entryDy=0;" edge="1" parent="VeLv6RaSljvd2OSAynk0-1" source="2uPIt1E3CVrj-p5gXUnj-62" target="2uPIt1E3CVrj-p5gXUnj-23">
          <mxGeometry relative="1" as="geometry" />
        </mxCell>
        <mxCell id="2uPIt1E3CVrj-p5gXUnj-67" style="edgeStyle=orthogonalEdgeStyle;rounded=0;orthogonalLoop=1;jettySize=auto;html=1;exitX=1;exitY=1;exitDx=0;exitDy=0;entryX=0;entryY=0.25;entryDx=0;entryDy=0;" edge="1" parent="VeLv6RaSljvd2OSAynk0-1" source="2uPIt1E3CVrj-p5gXUnj-68" target="2uPIt1E3CVrj-p5gXUnj-21">
          <mxGeometry relative="1" as="geometry" />
        </mxCell>
        <mxCell id="2uPIt1E3CVrj-p5gXUnj-68" value="Id_producto (PK)" style="ellipse;whiteSpace=wrap;html=1;" vertex="1" parent="VeLv6RaSljvd2OSAynk0-1">
          <mxGeometry x="920" y="700" width="110" height="40" as="geometry" />
        </mxCell>
        <mxCell id="2uPIt1E3CVrj-p5gXUnj-69" value="Nombre" style="ellipse;whiteSpace=wrap;html=1;" vertex="1" parent="VeLv6RaSljvd2OSAynk0-1">
          <mxGeometry x="960" y="655" width="70" height="30" as="geometry" />
        </mxCell>
        <mxCell id="2uPIt1E3CVrj-p5gXUnj-70" style="edgeStyle=orthogonalEdgeStyle;rounded=0;orthogonalLoop=1;jettySize=auto;html=1;exitX=1;exitY=1;exitDx=0;exitDy=0;" edge="1" parent="VeLv6RaSljvd2OSAynk0-1" source="2uPIt1E3CVrj-p5gXUnj-71">
          <mxGeometry relative="1" as="geometry">
            <mxPoint x="1150" y="750" as="targetPoint" />
          </mxGeometry>
        </mxCell>
        <mxCell id="2uPIt1E3CVrj-p5gXUnj-71" value="Descripción" style="ellipse;whiteSpace=wrap;html=1;" vertex="1" parent="VeLv6RaSljvd2OSAynk0-1">
          <mxGeometry x="1039" y="610" width="90" height="30" as="geometry" />
        </mxCell>
        <mxCell id="2uPIt1E3CVrj-p5gXUnj-72" style="edgeStyle=orthogonalEdgeStyle;rounded=0;orthogonalLoop=1;jettySize=auto;html=1;exitX=0;exitY=1;exitDx=0;exitDy=0;entryX=0.75;entryY=0;entryDx=0;entryDy=0;" edge="1" parent="VeLv6RaSljvd2OSAynk0-1" source="2uPIt1E3CVrj-p5gXUnj-73" target="2uPIt1E3CVrj-p5gXUnj-21">
          <mxGeometry relative="1" as="geometry" />
        </mxCell>
        <mxCell id="2uPIt1E3CVrj-p5gXUnj-73" value="Precio_compra" style="ellipse;whiteSpace=wrap;html=1;" vertex="1" parent="VeLv6RaSljvd2OSAynk0-1">
          <mxGeometry x="1190" y="610" width="90" height="30" as="geometry" />
        </mxCell>
        <mxCell id="2uPIt1E3CVrj-p5gXUnj-74" value="Precio_venta" style="ellipse;whiteSpace=wrap;html=1;" vertex="1" parent="VeLv6RaSljvd2OSAynk0-1">
          <mxGeometry x="1260" y="645.5" width="90" height="30" as="geometry" />
        </mxCell>
        <mxCell id="2uPIt1E3CVrj-p5gXUnj-75" style="edgeStyle=orthogonalEdgeStyle;rounded=0;orthogonalLoop=1;jettySize=auto;html=1;exitX=1;exitY=1;exitDx=0;exitDy=0;entryX=0.072;entryY=0.009;entryDx=0;entryDy=0;entryPerimeter=0;" edge="1" parent="VeLv6RaSljvd2OSAynk0-1" source="2uPIt1E3CVrj-p5gXUnj-69" target="2uPIt1E3CVrj-p5gXUnj-21">
          <mxGeometry relative="1" as="geometry" />
        </mxCell>
        <mxCell id="2uPIt1E3CVrj-p5gXUnj-76" style="edgeStyle=orthogonalEdgeStyle;rounded=0;orthogonalLoop=1;jettySize=auto;html=1;exitX=0;exitY=1;exitDx=0;exitDy=0;entryX=0.918;entryY=0.097;entryDx=0;entryDy=0;entryPerimeter=0;" edge="1" parent="VeLv6RaSljvd2OSAynk0-1" source="2uPIt1E3CVrj-p5gXUnj-74" target="2uPIt1E3CVrj-p5gXUnj-21">
          <mxGeometry relative="1" as="geometry" />
        </mxCell>
        <mxCell id="2uPIt1E3CVrj-p5gXUnj-77" value="Stock_minimo" style="ellipse;whiteSpace=wrap;html=1;" vertex="1" parent="VeLv6RaSljvd2OSAynk0-1">
          <mxGeometry x="1080" y="910" width="90" height="30" as="geometry" />
        </mxCell>
        <mxCell id="2uPIt1E3CVrj-p5gXUnj-78" style="edgeStyle=orthogonalEdgeStyle;rounded=0;orthogonalLoop=1;jettySize=auto;html=1;exitX=1;exitY=0.5;exitDx=0;exitDy=0;entryX=0.25;entryY=1;entryDx=0;entryDy=0;" edge="1" parent="VeLv6RaSljvd2OSAynk0-1" source="2uPIt1E3CVrj-p5gXUnj-79" target="2uPIt1E3CVrj-p5gXUnj-21">
          <mxGeometry relative="1" as="geometry" />
        </mxCell>
        <mxCell id="2uPIt1E3CVrj-p5gXUnj-79" value="Stock_actual" style="ellipse;whiteSpace=wrap;html=1;" vertex="1" parent="VeLv6RaSljvd2OSAynk0-1">
          <mxGeometry x="1010" y="875.5" width="90" height="30" as="geometry" />
        </mxCell>
        <mxCell id="2uPIt1E3CVrj-p5gXUnj-80" style="edgeStyle=orthogonalEdgeStyle;rounded=0;orthogonalLoop=1;jettySize=auto;html=1;exitX=0;exitY=0;exitDx=0;exitDy=0;entryX=0.75;entryY=1;entryDx=0;entryDy=0;" edge="1" parent="VeLv6RaSljvd2OSAynk0-1" source="2uPIt1E3CVrj-p5gXUnj-81" target="2uPIt1E3CVrj-p5gXUnj-21">
          <mxGeometry relative="1" as="geometry">
            <Array as="points">
              <mxPoint x="1231" y="850" />
              <mxPoint x="1206" y="850" />
            </Array>
          </mxGeometry>
        </mxCell>
        <mxCell id="2uPIt1E3CVrj-p5gXUnj-81" value="Id_categoria (FK)" style="ellipse;whiteSpace=wrap;html=1;" vertex="1" parent="VeLv6RaSljvd2OSAynk0-1">
          <mxGeometry x="1265" y="850" width="80" height="40" as="geometry" />
        </mxCell>
        <mxCell id="2uPIt1E3CVrj-p5gXUnj-82" value="Id_proveedor (FK)" style="ellipse;whiteSpace=wrap;html=1;" vertex="1" parent="VeLv6RaSljvd2OSAynk0-1">
          <mxGeometry x="1270" y="787.5" width="110" height="40" as="geometry" />
        </mxCell>
        <mxCell id="2uPIt1E3CVrj-p5gXUnj-83" style="edgeStyle=orthogonalEdgeStyle;rounded=0;orthogonalLoop=1;jettySize=auto;html=1;exitX=0;exitY=0.5;exitDx=0;exitDy=0;entryX=0.899;entryY=0.979;entryDx=0;entryDy=0;entryPerimeter=0;" edge="1" parent="VeLv6RaSljvd2OSAynk0-1" source="2uPIt1E3CVrj-p5gXUnj-82" target="2uPIt1E3CVrj-p5gXUnj-21">
          <mxGeometry relative="1" as="geometry" />
        </mxCell>
        <mxCell id="2uPIt1E3CVrj-p5gXUnj-84" value="Realiza" style="strokeWidth=2;html=1;shape=mxgraph.flowchart.decision;whiteSpace=wrap;" vertex="1" parent="VeLv6RaSljvd2OSAynk0-1">
          <mxGeometry x="1820" y="745.5" width="60" height="50" as="geometry" />
        </mxCell>
        <mxCell id="2uPIt1E3CVrj-p5gXUnj-85" value="" style="endArrow=none;html=1;rounded=0;exitX=1;exitY=0.5;exitDx=0;exitDy=0;exitPerimeter=0;" edge="1" parent="VeLv6RaSljvd2OSAynk0-1" source="2uPIt1E3CVrj-p5gXUnj-84" target="2uPIt1E3CVrj-p5gXUnj-0">
          <mxGeometry relative="1" as="geometry">
            <mxPoint x="1756" y="823" as="sourcePoint" />
            <mxPoint x="1740" y="883" as="targetPoint" />
          </mxGeometry>
        </mxCell>
        <mxCell id="2uPIt1E3CVrj-p5gXUnj-86" style="edgeStyle=orthogonalEdgeStyle;rounded=0;orthogonalLoop=1;jettySize=auto;html=1;exitX=0.5;exitY=1;exitDx=0;exitDy=0;entryX=0.426;entryY=0.04;entryDx=0;entryDy=0;entryPerimeter=0;" edge="1" parent="VeLv6RaSljvd2OSAynk0-1" source="2uPIt1E3CVrj-p5gXUnj-2" target="2uPIt1E3CVrj-p5gXUnj-0">
          <mxGeometry relative="1" as="geometry">
            <Array as="points">
              <mxPoint x="2054" y="690" />
              <mxPoint x="2099" y="690" />
            </Array>
          </mxGeometry>
        </mxCell>
        <mxCell id="2uPIt1E3CVrj-p5gXUnj-87" style="edgeStyle=orthogonalEdgeStyle;rounded=0;orthogonalLoop=1;jettySize=auto;html=1;exitX=1;exitY=1;exitDx=0;exitDy=0;entryX=0.178;entryY=-0.019;entryDx=0;entryDy=0;entryPerimeter=0;" edge="1" parent="VeLv6RaSljvd2OSAynk0-1" source="2uPIt1E3CVrj-p5gXUnj-1" target="2uPIt1E3CVrj-p5gXUnj-0">
          <mxGeometry relative="1" as="geometry" />
        </mxCell>
        <mxCell id="2uPIt1E3CVrj-p5gXUnj-88" value="Contiene" style="strokeWidth=2;html=1;shape=mxgraph.flowchart.decision;whiteSpace=wrap;" vertex="1" parent="VeLv6RaSljvd2OSAynk0-1">
          <mxGeometry x="1380" y="743" width="90" height="55" as="geometry" />
        </mxCell>
        <mxCell id="2uPIt1E3CVrj-p5gXUnj-89" value="" style="endArrow=none;html=1;rounded=0;entryX=0;entryY=0.5;entryDx=0;entryDy=0;exitX=1;exitY=0.5;exitDx=0;exitDy=0;exitPerimeter=0;" edge="1" parent="VeLv6RaSljvd2OSAynk0-1" source="2uPIt1E3CVrj-p5gXUnj-88" target="2uPIt1E3CVrj-p5gXUnj-24">
          <mxGeometry relative="1" as="geometry">
            <mxPoint x="1570" y="910" as="sourcePoint" />
            <mxPoint x="1732" y="910" as="targetPoint" />
          </mxGeometry>
        </mxCell>
        <mxCell id="2uPIt1E3CVrj-p5gXUnj-90" value="Id_compra (PK)" style="ellipse;whiteSpace=wrap;html=1;" vertex="1" parent="VeLv6RaSljvd2OSAynk0-1">
          <mxGeometry x="1492" y="670" width="110" height="40" as="geometry" />
        </mxCell>
        <mxCell id="2uPIt1E3CVrj-p5gXUnj-91" value="Fecha" style="ellipse;whiteSpace=wrap;html=1;" vertex="1" parent="VeLv6RaSljvd2OSAynk0-1">
          <mxGeometry x="1602" y="655" width="78" height="35" as="geometry" />
        </mxCell>
        <mxCell id="2uPIt1E3CVrj-p5gXUnj-92" value="Total" style="ellipse;whiteSpace=wrap;html=1;" vertex="1" parent="VeLv6RaSljvd2OSAynk0-1">
          <mxGeometry x="1730" y="705.5" width="80" height="30" as="geometry" />
        </mxCell>
        <mxCell id="2uPIt1E3CVrj-p5gXUnj-93" value="Hora" style="ellipse;whiteSpace=wrap;html=1;" vertex="1" parent="VeLv6RaSljvd2OSAynk0-1">
          <mxGeometry x="1690" y="670" width="60" height="30" as="geometry" />
        </mxCell>
        <mxCell id="2uPIt1E3CVrj-p5gXUnj-94" style="edgeStyle=orthogonalEdgeStyle;rounded=0;orthogonalLoop=1;jettySize=auto;html=1;exitX=0.5;exitY=0;exitDx=0;exitDy=0;entryX=0;entryY=0.75;entryDx=0;entryDy=0;" edge="1" parent="VeLv6RaSljvd2OSAynk0-1" source="2uPIt1E3CVrj-p5gXUnj-95" target="2uPIt1E3CVrj-p5gXUnj-24">
          <mxGeometry relative="1" as="geometry" />
        </mxCell>
        <mxCell id="2uPIt1E3CVrj-p5gXUnj-95" value="Id_usuario (FK)" style="ellipse;whiteSpace=wrap;html=1;" vertex="1" parent="VeLv6RaSljvd2OSAynk0-1">
          <mxGeometry x="1467" y="850" width="80" height="40" as="geometry" />
        </mxCell>
        <mxCell id="2uPIt1E3CVrj-p5gXUnj-96" value="Id_proveedor (FK)" style="ellipse;whiteSpace=wrap;html=1;" vertex="1" parent="VeLv6RaSljvd2OSAynk0-1">
          <mxGeometry x="1510" y="900" width="110" height="40" as="geometry" />
        </mxCell>
        <mxCell id="2uPIt1E3CVrj-p5gXUnj-97" value="Id_producto (FK)" style="ellipse;whiteSpace=wrap;html=1;" vertex="1" parent="VeLv6RaSljvd2OSAynk0-1">
          <mxGeometry x="1738" y="800" width="110" height="40" as="geometry" />
        </mxCell>
        <mxCell id="2uPIt1E3CVrj-p5gXUnj-98" style="edgeStyle=orthogonalEdgeStyle;rounded=0;orthogonalLoop=1;jettySize=auto;html=1;exitX=0.5;exitY=0;exitDx=0;exitDy=0;entryX=0.156;entryY=1;entryDx=0;entryDy=0;entryPerimeter=0;" edge="1" parent="VeLv6RaSljvd2OSAynk0-1" source="2uPIt1E3CVrj-p5gXUnj-96" target="2uPIt1E3CVrj-p5gXUnj-24">
          <mxGeometry relative="1" as="geometry" />
        </mxCell>
        <mxCell id="2uPIt1E3CVrj-p5gXUnj-99" style="edgeStyle=orthogonalEdgeStyle;rounded=0;orthogonalLoop=1;jettySize=auto;html=1;exitX=0;exitY=0;exitDx=0;exitDy=0;entryX=0.834;entryY=0.981;entryDx=0;entryDy=0;entryPerimeter=0;" edge="1" parent="VeLv6RaSljvd2OSAynk0-1" source="2uPIt1E3CVrj-p5gXUnj-97" target="2uPIt1E3CVrj-p5gXUnj-24">
          <mxGeometry relative="1" as="geometry" />
        </mxCell>
        <mxCell id="2uPIt1E3CVrj-p5gXUnj-100" style="edgeStyle=orthogonalEdgeStyle;rounded=0;orthogonalLoop=1;jettySize=auto;html=1;exitX=1;exitY=1;exitDx=0;exitDy=0;entryX=0.082;entryY=0.106;entryDx=0;entryDy=0;entryPerimeter=0;" edge="1" parent="VeLv6RaSljvd2OSAynk0-1" source="2uPIt1E3CVrj-p5gXUnj-90" target="2uPIt1E3CVrj-p5gXUnj-24">
          <mxGeometry relative="1" as="geometry" />
        </mxCell>
        <mxCell id="2uPIt1E3CVrj-p5gXUnj-101" style="edgeStyle=orthogonalEdgeStyle;rounded=0;orthogonalLoop=1;jettySize=auto;html=1;exitX=0.5;exitY=1;exitDx=0;exitDy=0;entryX=0.365;entryY=-0.019;entryDx=0;entryDy=0;entryPerimeter=0;" edge="1" parent="VeLv6RaSljvd2OSAynk0-1" source="2uPIt1E3CVrj-p5gXUnj-91" target="2uPIt1E3CVrj-p5gXUnj-24">
          <mxGeometry relative="1" as="geometry" />
        </mxCell>
        <mxCell id="2uPIt1E3CVrj-p5gXUnj-102" style="edgeStyle=orthogonalEdgeStyle;rounded=0;orthogonalLoop=1;jettySize=auto;html=1;exitX=0;exitY=1;exitDx=0;exitDy=0;entryX=0.609;entryY=0.106;entryDx=0;entryDy=0;entryPerimeter=0;" edge="1" parent="VeLv6RaSljvd2OSAynk0-1" source="2uPIt1E3CVrj-p5gXUnj-93" target="2uPIt1E3CVrj-p5gXUnj-24">
          <mxGeometry relative="1" as="geometry" />
        </mxCell>
        <mxCell id="2uPIt1E3CVrj-p5gXUnj-103" style="edgeStyle=orthogonalEdgeStyle;rounded=0;orthogonalLoop=1;jettySize=auto;html=1;exitX=0;exitY=0.5;exitDx=0;exitDy=0;entryX=0.922;entryY=-0.019;entryDx=0;entryDy=0;entryPerimeter=0;" edge="1" parent="VeLv6RaSljvd2OSAynk0-1" source="2uPIt1E3CVrj-p5gXUnj-92" target="2uPIt1E3CVrj-p5gXUnj-24">
          <mxGeometry relative="1" as="geometry" />
        </mxCell>
        <mxCell id="2uPIt1E3CVrj-p5gXUnj-104" value="Contiene" style="strokeWidth=2;html=1;shape=mxgraph.flowchart.decision;whiteSpace=wrap;" vertex="1" parent="VeLv6RaSljvd2OSAynk0-1">
          <mxGeometry x="1621" y="950" width="66" height="60" as="geometry" />
        </mxCell>
        <mxCell id="2uPIt1E3CVrj-p5gXUnj-105" value="" style="endArrow=none;html=1;rounded=0;exitX=0.5;exitY=1;exitDx=0;exitDy=0;exitPerimeter=0;entryX=0.5;entryY=0;entryDx=0;entryDy=0;" edge="1" parent="VeLv6RaSljvd2OSAynk0-1" source="2uPIt1E3CVrj-p5gXUnj-104" target="2uPIt1E3CVrj-p5gXUnj-25">
          <mxGeometry relative="1" as="geometry">
            <mxPoint x="1960" y="1200" as="sourcePoint" />
            <mxPoint x="1944.0000000000005" y="1260" as="targetPoint" />
          </mxGeometry>
        </mxCell>
        <mxCell id="2uPIt1E3CVrj-p5gXUnj-106" value="" style="endArrow=none;html=1;rounded=0;exitX=0.5;exitY=1;exitDx=0;exitDy=0;" edge="1" parent="VeLv6RaSljvd2OSAynk0-1" source="2uPIt1E3CVrj-p5gXUnj-24" target="2uPIt1E3CVrj-p5gXUnj-104">
          <mxGeometry relative="1" as="geometry">
            <mxPoint x="1870" y="1010" as="sourcePoint" />
            <mxPoint x="1870" y="1100" as="targetPoint" />
          </mxGeometry>
        </mxCell>
        <mxCell id="2uPIt1E3CVrj-p5gXUnj-107" value="Id_detalle_compra (PK)" style="ellipse;whiteSpace=wrap;html=1;" vertex="1" parent="VeLv6RaSljvd2OSAynk0-1">
          <mxGeometry x="1441" y="1160" width="110" height="40" as="geometry" />
        </mxCell>
        <mxCell id="2uPIt1E3CVrj-p5gXUnj-108" value="Id_compra (FK)" style="ellipse;whiteSpace=wrap;html=1;" vertex="1" parent="VeLv6RaSljvd2OSAynk0-1">
          <mxGeometry x="1540" y="1200" width="110" height="40" as="geometry" />
        </mxCell>
        <mxCell id="2uPIt1E3CVrj-p5gXUnj-109" value="Id_producto (FK)" style="ellipse;whiteSpace=wrap;html=1;" vertex="1" parent="VeLv6RaSljvd2OSAynk0-1">
          <mxGeometry x="1632" y="1240" width="110" height="40" as="geometry" />
        </mxCell>
        <mxCell id="2uPIt1E3CVrj-p5gXUnj-110" value="Cantidad" style="ellipse;whiteSpace=wrap;html=1;" vertex="1" parent="VeLv6RaSljvd2OSAynk0-1">
          <mxGeometry x="1710" y="1040" width="90" height="30" as="geometry" />
        </mxCell>
        <mxCell id="2uPIt1E3CVrj-p5gXUnj-111" style="edgeStyle=orthogonalEdgeStyle;rounded=0;orthogonalLoop=1;jettySize=auto;html=1;exitX=0;exitY=0.5;exitDx=0;exitDy=0;entryX=1;entryY=0.5;entryDx=0;entryDy=0;" edge="1" parent="VeLv6RaSljvd2OSAynk0-1" source="2uPIt1E3CVrj-p5gXUnj-112" target="2uPIt1E3CVrj-p5gXUnj-25">
          <mxGeometry relative="1" as="geometry" />
        </mxCell>
        <mxCell id="2uPIt1E3CVrj-p5gXUnj-112" value="Precio_compra" style="ellipse;whiteSpace=wrap;html=1;" vertex="1" parent="VeLv6RaSljvd2OSAynk0-1">
          <mxGeometry x="1770" y="1140" width="110" height="40" as="geometry" />
        </mxCell>
        <mxCell id="2uPIt1E3CVrj-p5gXUnj-113" value="Subtotal" style="ellipse;whiteSpace=wrap;html=1;" vertex="1" parent="VeLv6RaSljvd2OSAynk0-1">
          <mxGeometry x="1745" y="1200" width="110" height="40" as="geometry" />
        </mxCell>
        <mxCell id="2uPIt1E3CVrj-p5gXUnj-114" style="edgeStyle=orthogonalEdgeStyle;rounded=0;orthogonalLoop=1;jettySize=auto;html=1;exitX=0;exitY=1;exitDx=0;exitDy=0;entryX=0.83;entryY=0.01;entryDx=0;entryDy=0;entryPerimeter=0;" edge="1" parent="VeLv6RaSljvd2OSAynk0-1" source="2uPIt1E3CVrj-p5gXUnj-110" target="2uPIt1E3CVrj-p5gXUnj-25">
          <mxGeometry relative="1" as="geometry" />
        </mxCell>
        <mxCell id="2uPIt1E3CVrj-p5gXUnj-115" style="edgeStyle=orthogonalEdgeStyle;rounded=0;orthogonalLoop=1;jettySize=auto;html=1;exitX=0;exitY=0;exitDx=0;exitDy=0;entryX=0.858;entryY=0.951;entryDx=0;entryDy=0;entryPerimeter=0;" edge="1" parent="VeLv6RaSljvd2OSAynk0-1" source="2uPIt1E3CVrj-p5gXUnj-113" target="2uPIt1E3CVrj-p5gXUnj-25">
          <mxGeometry relative="1" as="geometry">
            <Array as="points">
              <mxPoint x="1761" y="1190" />
              <mxPoint x="1700" y="1190" />
            </Array>
          </mxGeometry>
        </mxCell>
        <mxCell id="2uPIt1E3CVrj-p5gXUnj-116" value="Id_historialP (PK)" style="ellipse;whiteSpace=wrap;html=1;" vertex="1" parent="VeLv6RaSljvd2OSAynk0-1">
          <mxGeometry x="1000" y="1150" width="110" height="40" as="geometry" />
        </mxCell>
        <mxCell id="2uPIt1E3CVrj-p5gXUnj-117" style="edgeStyle=orthogonalEdgeStyle;rounded=0;orthogonalLoop=1;jettySize=auto;html=1;exitX=1;exitY=0.5;exitDx=0;exitDy=0;entryX=0.343;entryY=0.028;entryDx=0;entryDy=0;entryPerimeter=0;" edge="1" parent="VeLv6RaSljvd2OSAynk0-1" source="2uPIt1E3CVrj-p5gXUnj-116" target="2uPIt1E3CVrj-p5gXUnj-45">
          <mxGeometry relative="1" as="geometry" />
        </mxCell>
        <mxCell id="2uPIt1E3CVrj-p5gXUnj-118" style="edgeStyle=orthogonalEdgeStyle;rounded=0;orthogonalLoop=1;jettySize=auto;html=1;exitX=0.5;exitY=0;exitDx=0;exitDy=0;entryX=0;entryY=1;entryDx=0;entryDy=0;" edge="1" parent="VeLv6RaSljvd2OSAynk0-1" source="2uPIt1E3CVrj-p5gXUnj-119" target="2uPIt1E3CVrj-p5gXUnj-45">
          <mxGeometry relative="1" as="geometry" />
        </mxCell>
        <mxCell id="2uPIt1E3CVrj-p5gXUnj-119" value="Precio_antiguo" style="ellipse;whiteSpace=wrap;html=1;" vertex="1" parent="VeLv6RaSljvd2OSAynk0-1">
          <mxGeometry x="1023" y="1310" width="97" height="30" as="geometry" />
        </mxCell>
        <mxCell id="2uPIt1E3CVrj-p5gXUnj-120" style="edgeStyle=orthogonalEdgeStyle;rounded=0;orthogonalLoop=1;jettySize=auto;html=1;exitX=1;exitY=0.5;exitDx=0;exitDy=0;entryX=0;entryY=0.5;entryDx=0;entryDy=0;" edge="1" parent="VeLv6RaSljvd2OSAynk0-1" source="2uPIt1E3CVrj-p5gXUnj-121" target="2uPIt1E3CVrj-p5gXUnj-45">
          <mxGeometry relative="1" as="geometry" />
        </mxCell>
        <mxCell id="2uPIt1E3CVrj-p5gXUnj-121" value="Id_producto (FK)" style="ellipse;whiteSpace=wrap;html=1;" vertex="1" parent="VeLv6RaSljvd2OSAynk0-1">
          <mxGeometry x="960" y="1230" width="110" height="40" as="geometry" />
        </mxCell>
        <mxCell id="2uPIt1E3CVrj-p5gXUnj-122" style="edgeStyle=orthogonalEdgeStyle;rounded=0;orthogonalLoop=1;jettySize=auto;html=1;exitX=1;exitY=0;exitDx=0;exitDy=0;" edge="1" parent="VeLv6RaSljvd2OSAynk0-1" source="2uPIt1E3CVrj-p5gXUnj-123">
          <mxGeometry relative="1" as="geometry">
            <mxPoint x="1140" y="1250" as="targetPoint" />
          </mxGeometry>
        </mxCell>
        <mxCell id="2uPIt1E3CVrj-p5gXUnj-123" value="Precio_nuevo" style="ellipse;whiteSpace=wrap;html=1;" vertex="1" parent="VeLv6RaSljvd2OSAynk0-1">
          <mxGeometry x="1053" y="1360" width="107" height="30" as="geometry" />
        </mxCell>
        <mxCell id="2uPIt1E3CVrj-p5gXUnj-124" style="edgeStyle=orthogonalEdgeStyle;rounded=0;orthogonalLoop=1;jettySize=auto;html=1;exitX=0;exitY=0.5;exitDx=0;exitDy=0;entryX=1;entryY=0.25;entryDx=0;entryDy=0;" edge="1" parent="VeLv6RaSljvd2OSAynk0-1" source="2uPIt1E3CVrj-p5gXUnj-125" target="2uPIt1E3CVrj-p5gXUnj-45">
          <mxGeometry relative="1" as="geometry" />
        </mxCell>
        <mxCell id="2uPIt1E3CVrj-p5gXUnj-125" value="Fecha_cambio" style="ellipse;whiteSpace=wrap;html=1;" vertex="1" parent="VeLv6RaSljvd2OSAynk0-1">
          <mxGeometry x="1290" y="1200" width="110" height="40" as="geometry" />
        </mxCell>
        <mxCell id="2uPIt1E3CVrj-p5gXUnj-126" value="Motivo" style="ellipse;whiteSpace=wrap;html=1;" vertex="1" parent="VeLv6RaSljvd2OSAynk0-1">
          <mxGeometry x="1280" y="1260" width="110" height="40" as="geometry" />
        </mxCell>
        <mxCell id="2uPIt1E3CVrj-p5gXUnj-127" style="edgeStyle=orthogonalEdgeStyle;rounded=0;orthogonalLoop=1;jettySize=auto;html=1;exitX=0;exitY=0.5;exitDx=0;exitDy=0;entryX=0.75;entryY=0;entryDx=0;entryDy=0;" edge="1" parent="VeLv6RaSljvd2OSAynk0-1" source="2uPIt1E3CVrj-p5gXUnj-128" target="2uPIt1E3CVrj-p5gXUnj-45">
          <mxGeometry relative="1" as="geometry" />
        </mxCell>
        <mxCell id="2uPIt1E3CVrj-p5gXUnj-128" value="Id_usuario (FK)" style="ellipse;whiteSpace=wrap;html=1;" vertex="1" parent="VeLv6RaSljvd2OSAynk0-1">
          <mxGeometry x="1250" y="1150" width="80" height="40" as="geometry" />
        </mxCell>
        <mxCell id="2uPIt1E3CVrj-p5gXUnj-129" style="edgeStyle=orthogonalEdgeStyle;rounded=0;orthogonalLoop=1;jettySize=auto;html=1;exitX=0;exitY=0.5;exitDx=0;exitDy=0;entryX=0.904;entryY=0.94;entryDx=0;entryDy=0;entryPerimeter=0;" edge="1" parent="VeLv6RaSljvd2OSAynk0-1" source="2uPIt1E3CVrj-p5gXUnj-126" target="2uPIt1E3CVrj-p5gXUnj-45">
          <mxGeometry relative="1" as="geometry" />
        </mxCell>
        <mxCell id="2uPIt1E3CVrj-p5gXUnj-130" style="edgeStyle=orthogonalEdgeStyle;rounded=0;orthogonalLoop=1;jettySize=auto;html=1;exitX=0;exitY=0;exitDx=0;exitDy=0;entryX=0.25;entryY=1;entryDx=0;entryDy=0;" edge="1" parent="VeLv6RaSljvd2OSAynk0-1" source="2uPIt1E3CVrj-p5gXUnj-10" target="2uPIt1E3CVrj-p5gXUnj-0">
          <mxGeometry relative="1" as="geometry">
            <Array as="points">
              <mxPoint x="2107" y="850" />
              <mxPoint x="2075" y="850" />
            </Array>
          </mxGeometry>
        </mxCell>
        <mxCell id="2uPIt1E3CVrj-p5gXUnj-131" value="Realiza" style="strokeWidth=2;html=1;shape=mxgraph.flowchart.decision;whiteSpace=wrap;" vertex="1" parent="VeLv6RaSljvd2OSAynk0-1">
          <mxGeometry x="1795" y="1400" width="60" height="50" as="geometry" />
        </mxCell>
        <mxCell id="2uPIt1E3CVrj-p5gXUnj-132" value="" style="endArrow=none;html=1;rounded=0;exitX=0;exitY=0.5;exitDx=0;exitDy=0;exitPerimeter=0;entryX=0.5;entryY=1;entryDx=0;entryDy=0;" edge="1" parent="VeLv6RaSljvd2OSAynk0-1" source="2uPIt1E3CVrj-p5gXUnj-131" target="2uPIt1E3CVrj-p5gXUnj-45">
          <mxGeometry relative="1" as="geometry">
            <mxPoint x="2030" y="1520" as="sourcePoint" />
            <mxPoint x="2014" y="1580" as="targetPoint" />
            <Array as="points">
              <mxPoint x="1174" y="1430" />
            </Array>
          </mxGeometry>
        </mxCell>
        <mxCell id="2uPIt1E3CVrj-p5gXUnj-133" style="edgeStyle=orthogonalEdgeStyle;rounded=0;orthogonalLoop=1;jettySize=auto;html=1;exitX=0.5;exitY=1;exitDx=0;exitDy=0;entryX=0;entryY=0.25;entryDx=0;entryDy=0;" edge="1" parent="VeLv6RaSljvd2OSAynk0-1" source="2uPIt1E3CVrj-p5gXUnj-134" target="2uPIt1E3CVrj-p5gXUnj-16">
          <mxGeometry relative="1" as="geometry" />
        </mxCell>
        <mxCell id="2uPIt1E3CVrj-p5gXUnj-134" value="Id_inventario (PK)" style="ellipse;whiteSpace=wrap;html=1;" vertex="1" parent="VeLv6RaSljvd2OSAynk0-1">
          <mxGeometry x="1650" y="360" width="80" height="40" as="geometry" />
        </mxCell>
        <mxCell id="2uPIt1E3CVrj-p5gXUnj-135" value="" style="endArrow=none;html=1;rounded=0;exitX=0;exitY=0.5;exitDx=0;exitDy=0;exitPerimeter=0;entryX=1;entryY=0.5;entryDx=0;entryDy=0;" edge="1" parent="VeLv6RaSljvd2OSAynk0-1" source="2uPIt1E3CVrj-p5gXUnj-17" target="2uPIt1E3CVrj-p5gXUnj-16">
          <mxGeometry relative="1" as="geometry">
            <mxPoint x="1690" y="340" as="sourcePoint" />
            <mxPoint x="1690" y="500" as="targetPoint" />
          </mxGeometry>
        </mxCell>
        <mxCell id="2uPIt1E3CVrj-p5gXUnj-136" value="" style="endArrow=none;html=1;rounded=0;exitX=1;exitY=0.25;exitDx=0;exitDy=0;" edge="1" parent="VeLv6RaSljvd2OSAynk0-1" source="2uPIt1E3CVrj-p5gXUnj-21" target="2uPIt1E3CVrj-p5gXUnj-137">
          <mxGeometry relative="1" as="geometry">
            <mxPoint x="1238" y="761" as="sourcePoint" />
            <mxPoint x="1530" y="480" as="targetPoint" />
            <Array as="points">
              <mxPoint x="1370" y="761" />
              <mxPoint x="1370" y="475" />
            </Array>
          </mxGeometry>
        </mxCell>
        <mxCell id="2uPIt1E3CVrj-p5gXUnj-137" value="Cambia" style="strokeWidth=2;html=1;shape=mxgraph.flowchart.decision;whiteSpace=wrap;" vertex="1" parent="VeLv6RaSljvd2OSAynk0-1">
          <mxGeometry x="1440" y="450" width="60" height="50" as="geometry" />
        </mxCell>
        <mxCell id="2uPIt1E3CVrj-p5gXUnj-138" value="" style="endArrow=none;html=1;rounded=0;exitX=0;exitY=0.5;exitDx=0;exitDy=0;entryX=1;entryY=0.5;entryDx=0;entryDy=0;entryPerimeter=0;" edge="1" parent="VeLv6RaSljvd2OSAynk0-1" source="2uPIt1E3CVrj-p5gXUnj-16" target="2uPIt1E3CVrj-p5gXUnj-137">
          <mxGeometry relative="1" as="geometry">
            <mxPoint x="1673" y="310" as="sourcePoint" />
            <mxPoint x="1460" y="310" as="targetPoint" />
          </mxGeometry>
        </mxCell>
        <mxCell id="2uPIt1E3CVrj-p5gXUnj-139" style="edgeStyle=orthogonalEdgeStyle;rounded=0;orthogonalLoop=1;jettySize=auto;html=1;exitX=0;exitY=1;exitDx=0;exitDy=0;" edge="1" parent="VeLv6RaSljvd2OSAynk0-1" source="2uPIt1E3CVrj-p5gXUnj-140">
          <mxGeometry relative="1" as="geometry">
            <mxPoint x="1752.6153846153843" y="450" as="targetPoint" />
          </mxGeometry>
        </mxCell>
        <mxCell id="2uPIt1E3CVrj-p5gXUnj-140" value="Fecha" style="ellipse;whiteSpace=wrap;html=1;" vertex="1" parent="VeLv6RaSljvd2OSAynk0-1">
          <mxGeometry x="1742" y="345" width="78" height="35" as="geometry" />
        </mxCell>
        <mxCell id="2uPIt1E3CVrj-p5gXUnj-141" style="edgeStyle=orthogonalEdgeStyle;rounded=0;orthogonalLoop=1;jettySize=auto;html=1;exitX=0;exitY=1;exitDx=0;exitDy=0;entryX=0.585;entryY=-0.079;entryDx=0;entryDy=0;entryPerimeter=0;" edge="1" parent="VeLv6RaSljvd2OSAynk0-1" source="2uPIt1E3CVrj-p5gXUnj-142" target="2uPIt1E3CVrj-p5gXUnj-16">
          <mxGeometry relative="1" as="geometry" />
        </mxCell>
        <mxCell id="2uPIt1E3CVrj-p5gXUnj-142" value="Id_producto (FK)" style="ellipse;whiteSpace=wrap;html=1;" vertex="1" parent="VeLv6RaSljvd2OSAynk0-1">
          <mxGeometry x="1820" y="350" width="110" height="40" as="geometry" />
        </mxCell>
        <mxCell id="2uPIt1E3CVrj-p5gXUnj-143" value="Cantidad_anterior" style="ellipse;whiteSpace=wrap;html=1;" vertex="1" parent="VeLv6RaSljvd2OSAynk0-1">
          <mxGeometry x="1880" y="420" width="120" height="30" as="geometry" />
        </mxCell>
        <mxCell id="2uPIt1E3CVrj-p5gXUnj-144" style="edgeStyle=orthogonalEdgeStyle;rounded=0;orthogonalLoop=1;jettySize=auto;html=1;exitX=0;exitY=0.5;exitDx=0;exitDy=0;entryX=0.897;entryY=0.037;entryDx=0;entryDy=0;entryPerimeter=0;" edge="1" parent="VeLv6RaSljvd2OSAynk0-1" source="2uPIt1E3CVrj-p5gXUnj-143" target="2uPIt1E3CVrj-p5gXUnj-16">
          <mxGeometry relative="1" as="geometry" />
        </mxCell>
        <mxCell id="2uPIt1E3CVrj-p5gXUnj-145" value="Cantidad_nueva" style="ellipse;whiteSpace=wrap;html=1;" vertex="1" parent="VeLv6RaSljvd2OSAynk0-1">
          <mxGeometry x="1650" y="550" width="100" height="40" as="geometry" />
        </mxCell>
        <mxCell id="2uPIt1E3CVrj-p5gXUnj-146" style="edgeStyle=orthogonalEdgeStyle;rounded=0;orthogonalLoop=1;jettySize=auto;html=1;exitX=0.5;exitY=0;exitDx=0;exitDy=0;entryX=0.116;entryY=0.96;entryDx=0;entryDy=0;entryPerimeter=0;" edge="1" parent="VeLv6RaSljvd2OSAynk0-1" source="2uPIt1E3CVrj-p5gXUnj-145" target="2uPIt1E3CVrj-p5gXUnj-16">
          <mxGeometry relative="1" as="geometry" />
        </mxCell>
        <mxCell id="2uPIt1E3CVrj-p5gXUnj-147" style="edgeStyle=orthogonalEdgeStyle;rounded=0;orthogonalLoop=1;jettySize=auto;html=1;exitX=0.5;exitY=0;exitDx=0;exitDy=0;" edge="1" parent="VeLv6RaSljvd2OSAynk0-1" source="2uPIt1E3CVrj-p5gXUnj-148">
          <mxGeometry relative="1" as="geometry">
            <mxPoint x="1790" y="500" as="targetPoint" />
          </mxGeometry>
        </mxCell>
        <mxCell id="2uPIt1E3CVrj-p5gXUnj-148" value="Motivo" style="ellipse;whiteSpace=wrap;html=1;" vertex="1" parent="VeLv6RaSljvd2OSAynk0-1">
          <mxGeometry x="1765" y="570" width="90" height="30" as="geometry" />
        </mxCell>
        <mxCell id="2uPIt1E3CVrj-p5gXUnj-149" value="Id_usuario (FK)" style="ellipse;whiteSpace=wrap;html=1;" vertex="1" parent="VeLv6RaSljvd2OSAynk0-1">
          <mxGeometry x="1870" y="530" width="80" height="40" as="geometry" />
        </mxCell>
        <mxCell id="2uPIt1E3CVrj-p5gXUnj-150" style="edgeStyle=orthogonalEdgeStyle;rounded=0;orthogonalLoop=1;jettySize=auto;html=1;exitX=0;exitY=0;exitDx=0;exitDy=0;entryX=0.909;entryY=0.921;entryDx=0;entryDy=0;entryPerimeter=0;" edge="1" parent="VeLv6RaSljvd2OSAynk0-1" source="2uPIt1E3CVrj-p5gXUnj-149" target="2uPIt1E3CVrj-p5gXUnj-16">
          <mxGeometry relative="1" as="geometry" />
        </mxCell>
        <mxCell id="2uPIt1E3CVrj-p5gXUnj-151" style="edgeStyle=orthogonalEdgeStyle;rounded=0;orthogonalLoop=1;jettySize=auto;html=1;exitX=1;exitY=0;exitDx=0;exitDy=0;entryX=0.327;entryY=0.924;entryDx=0;entryDy=0;entryPerimeter=0;" edge="1" parent="VeLv6RaSljvd2OSAynk0-1" source="2uPIt1E3CVrj-p5gXUnj-77" target="2uPIt1E3CVrj-p5gXUnj-21">
          <mxGeometry relative="1" as="geometry" />
        </mxCell>
        <mxCell id="2uPIt1E3CVrj-p5gXUnj-152" value="" style="endArrow=none;html=1;rounded=0;entryX=0;entryY=0.75;entryDx=0;entryDy=0;exitX=0;exitY=0.5;exitDx=0;exitDy=0;exitPerimeter=0;" edge="1" parent="VeLv6RaSljvd2OSAynk0-1" source="2uPIt1E3CVrj-p5gXUnj-153" target="2uPIt1E3CVrj-p5gXUnj-21">
          <mxGeometry relative="1" as="geometry">
            <mxPoint x="900" y="1520" as="sourcePoint" />
            <mxPoint x="1100" y="950" as="targetPoint" />
            <Array as="points">
              <mxPoint x="900" y="1510" />
              <mxPoint x="900" y="781" />
            </Array>
          </mxGeometry>
        </mxCell>
        <mxCell id="2uPIt1E3CVrj-p5gXUnj-153" value="Incluye" style="strokeWidth=2;html=1;shape=mxgraph.flowchart.decision;whiteSpace=wrap;" vertex="1" parent="VeLv6RaSljvd2OSAynk0-1">
          <mxGeometry x="1611" y="1490" width="60" height="50" as="geometry" />
        </mxCell>
        <mxCell id="2uPIt1E3CVrj-p5gXUnj-154" value="" style="endArrow=none;html=1;rounded=0;exitX=0.5;exitY=1;exitDx=0;exitDy=0;entryX=1;entryY=0.5;entryDx=0;entryDy=0;entryPerimeter=0;" edge="1" parent="VeLv6RaSljvd2OSAynk0-1" source="2uPIt1E3CVrj-p5gXUnj-26" target="2uPIt1E3CVrj-p5gXUnj-153">
          <mxGeometry relative="1" as="geometry">
            <mxPoint x="1954" y="1550" as="sourcePoint" />
            <mxPoint x="1690" y="1660" as="targetPoint" />
            <Array as="points">
              <mxPoint x="2480" y="1515" />
            </Array>
          </mxGeometry>
        </mxCell>
        <mxCell id="2uPIt1E3CVrj-p5gXUnj-155" value="Id_producto (FK)" style="ellipse;whiteSpace=wrap;html=1;" vertex="1" parent="VeLv6RaSljvd2OSAynk0-1">
          <mxGeometry x="2580" y="1215" width="110" height="40" as="geometry" />
        </mxCell>
        <mxCell id="2uPIt1E3CVrj-p5gXUnj-156" value="Id_venta (FK)" style="ellipse;whiteSpace=wrap;html=1;" vertex="1" parent="VeLv6RaSljvd2OSAynk0-1">
          <mxGeometry x="2540" y="1125" width="80" height="40" as="geometry" />
        </mxCell>
        <mxCell id="2uPIt1E3CVrj-p5gXUnj-157" value="Subtotal" style="ellipse;whiteSpace=wrap;html=1;" vertex="1" parent="VeLv6RaSljvd2OSAynk0-1">
          <mxGeometry x="2495" y="1280" width="90" height="30" as="geometry" />
        </mxCell>
        <mxCell id="2uPIt1E3CVrj-p5gXUnj-158" style="edgeStyle=orthogonalEdgeStyle;rounded=0;orthogonalLoop=1;jettySize=auto;html=1;exitX=1;exitY=0.5;exitDx=0;exitDy=0;entryX=0;entryY=0.75;entryDx=0;entryDy=0;" edge="1" parent="VeLv6RaSljvd2OSAynk0-1" source="2uPIt1E3CVrj-p5gXUnj-159" target="2uPIt1E3CVrj-p5gXUnj-26">
          <mxGeometry relative="1" as="geometry" />
        </mxCell>
        <mxCell id="2uPIt1E3CVrj-p5gXUnj-159" value="Cantidad" style="ellipse;whiteSpace=wrap;html=1;" vertex="1" parent="VeLv6RaSljvd2OSAynk0-1">
          <mxGeometry x="2268" y="1190" width="72" height="30" as="geometry" />
        </mxCell>
        <mxCell id="2uPIt1E3CVrj-p5gXUnj-160" value="Precio_unitario" style="ellipse;whiteSpace=wrap;html=1;" vertex="1" parent="VeLv6RaSljvd2OSAynk0-1">
          <mxGeometry x="2340" y="1265" width="98" height="35" as="geometry" />
        </mxCell>
        <mxCell id="2uPIt1E3CVrj-p5gXUnj-161" value="id_detalle_venta&lt;div&gt;(PK)&lt;/div&gt;" style="ellipse;whiteSpace=wrap;html=1;" vertex="1" parent="VeLv6RaSljvd2OSAynk0-1">
          <mxGeometry x="2300" y="1130" width="130" height="40" as="geometry" />
        </mxCell>
        <mxCell id="2uPIt1E3CVrj-p5gXUnj-162" style="edgeStyle=orthogonalEdgeStyle;rounded=0;orthogonalLoop=1;jettySize=auto;html=1;exitX=1;exitY=0.5;exitDx=0;exitDy=0;entryX=0.3;entryY=0.095;entryDx=0;entryDy=0;entryPerimeter=0;" edge="1" parent="VeLv6RaSljvd2OSAynk0-1" source="2uPIt1E3CVrj-p5gXUnj-161" target="2uPIt1E3CVrj-p5gXUnj-26">
          <mxGeometry relative="1" as="geometry" />
        </mxCell>
        <mxCell id="2uPIt1E3CVrj-p5gXUnj-163" style="edgeStyle=orthogonalEdgeStyle;rounded=0;orthogonalLoop=1;jettySize=auto;html=1;exitX=0;exitY=0.5;exitDx=0;exitDy=0;entryX=1.006;entryY=0.635;entryDx=0;entryDy=0;entryPerimeter=0;" edge="1" parent="VeLv6RaSljvd2OSAynk0-1" source="2uPIt1E3CVrj-p5gXUnj-155" target="2uPIt1E3CVrj-p5gXUnj-26">
          <mxGeometry relative="1" as="geometry" />
        </mxCell>
        <mxCell id="2uPIt1E3CVrj-p5gXUnj-164" style="edgeStyle=orthogonalEdgeStyle;rounded=0;orthogonalLoop=1;jettySize=auto;html=1;exitX=1;exitY=0;exitDx=0;exitDy=0;entryX=0.344;entryY=0.995;entryDx=0;entryDy=0;entryPerimeter=0;" edge="1" parent="VeLv6RaSljvd2OSAynk0-1" source="2uPIt1E3CVrj-p5gXUnj-160" target="2uPIt1E3CVrj-p5gXUnj-26">
          <mxGeometry relative="1" as="geometry" />
        </mxCell>
        <mxCell id="2uPIt1E3CVrj-p5gXUnj-165" style="edgeStyle=orthogonalEdgeStyle;rounded=0;orthogonalLoop=1;jettySize=auto;html=1;exitX=0.5;exitY=0;exitDx=0;exitDy=0;entryX=0.794;entryY=1.035;entryDx=0;entryDy=0;entryPerimeter=0;" edge="1" parent="VeLv6RaSljvd2OSAynk0-1" source="2uPIt1E3CVrj-p5gXUnj-157" target="2uPIt1E3CVrj-p5gXUnj-26">
          <mxGeometry relative="1" as="geometry" />
        </mxCell>
        <mxCell id="2uPIt1E3CVrj-p5gXUnj-166" style="edgeStyle=orthogonalEdgeStyle;rounded=0;orthogonalLoop=1;jettySize=auto;html=1;exitX=0;exitY=0.5;exitDx=0;exitDy=0;entryX=0.881;entryY=-0.025;entryDx=0;entryDy=0;entryPerimeter=0;" edge="1" parent="VeLv6RaSljvd2OSAynk0-1" source="2uPIt1E3CVrj-p5gXUnj-156" target="2uPIt1E3CVrj-p5gXUnj-26">
          <mxGeometry relative="1" as="geometry" />
        </mxCell>
        <mxCell id="2uPIt1E3CVrj-p5gXUnj-167" value="(1,1)" style="text;html=1;align=center;verticalAlign=middle;whiteSpace=wrap;rounded=0;" vertex="1" parent="VeLv6RaSljvd2OSAynk0-1">
          <mxGeometry x="950" y="740" width="60" height="30" as="geometry" />
        </mxCell>
        <mxCell id="2uPIt1E3CVrj-p5gXUnj-168" value="(1,N)" style="text;html=1;align=center;verticalAlign=middle;whiteSpace=wrap;rounded=0;" vertex="1" parent="VeLv6RaSljvd2OSAynk0-1">
          <mxGeometry x="1170" y="440" width="60" height="30" as="geometry" />
        </mxCell>
        <mxCell id="2uPIt1E3CVrj-p5gXUnj-169" value="(1,N)" style="text;html=1;align=center;verticalAlign=middle;whiteSpace=wrap;rounded=0;" vertex="1" parent="VeLv6RaSljvd2OSAynk0-1">
          <mxGeometry x="1170" y="580" width="60" height="30" as="geometry" />
        </mxCell>
        <mxCell id="2uPIt1E3CVrj-p5gXUnj-170" value="(1,N)" style="text;html=1;align=center;verticalAlign=middle;whiteSpace=wrap;rounded=0;" vertex="1" parent="VeLv6RaSljvd2OSAynk0-1">
          <mxGeometry x="700" y="735.5" width="60" height="30" as="geometry" />
        </mxCell>
        <mxCell id="2uPIt1E3CVrj-p5gXUnj-171" value="(0,N)" style="text;html=1;align=center;verticalAlign=middle;whiteSpace=wrap;rounded=0;" vertex="1" parent="VeLv6RaSljvd2OSAynk0-1">
          <mxGeometry x="1170" y="1030" width="60" height="30" as="geometry" />
        </mxCell>
        <mxCell id="2uPIt1E3CVrj-p5gXUnj-172" value="(1,1)" style="text;html=1;align=center;verticalAlign=middle;whiteSpace=wrap;rounded=0;" vertex="1" parent="VeLv6RaSljvd2OSAynk0-1">
          <mxGeometry x="1170" y="1115" width="60" height="30" as="geometry" />
        </mxCell>
        <mxCell id="2uPIt1E3CVrj-p5gXUnj-173" value="(0,N)" style="text;html=1;align=center;verticalAlign=middle;whiteSpace=wrap;rounded=0;" vertex="1" parent="VeLv6RaSljvd2OSAynk0-1">
          <mxGeometry x="1870" y="1400" width="60" height="30" as="geometry" />
        </mxCell>
        <mxCell id="2uPIt1E3CVrj-p5gXUnj-174" value="(1,1)" style="text;html=1;align=center;verticalAlign=middle;whiteSpace=wrap;rounded=0;" vertex="1" parent="VeLv6RaSljvd2OSAynk0-1">
          <mxGeometry x="1710" y="1400" width="60" height="30" as="geometry" />
        </mxCell>
        <mxCell id="2uPIt1E3CVrj-p5gXUnj-175" value="(0,N)" style="text;html=1;align=center;verticalAlign=middle;whiteSpace=wrap;rounded=0;" vertex="1" parent="VeLv6RaSljvd2OSAynk0-1">
          <mxGeometry x="1370" y="440" width="60" height="30" as="geometry" />
        </mxCell>
        <mxCell id="2uPIt1E3CVrj-p5gXUnj-176" value="(1,1)" style="text;html=1;align=center;verticalAlign=middle;whiteSpace=wrap;rounded=0;" vertex="1" parent="VeLv6RaSljvd2OSAynk0-1">
          <mxGeometry x="1530" y="440" width="60" height="30" as="geometry" />
        </mxCell>
        <mxCell id="2uPIt1E3CVrj-p5gXUnj-177" value="(0,N)" style="text;html=1;align=center;verticalAlign=middle;whiteSpace=wrap;rounded=0;" vertex="1" parent="VeLv6RaSljvd2OSAynk0-1">
          <mxGeometry x="2112" y="515" width="60" height="30" as="geometry" />
        </mxCell>
        <mxCell id="2uPIt1E3CVrj-p5gXUnj-178" value="(1,1)" style="text;html=1;align=center;verticalAlign=middle;whiteSpace=wrap;rounded=0;" vertex="1" parent="VeLv6RaSljvd2OSAynk0-1">
          <mxGeometry x="2018" y="440" width="60" height="30" as="geometry" />
        </mxCell>
        <mxCell id="2uPIt1E3CVrj-p5gXUnj-179" value="(1,N)" style="text;html=1;align=center;verticalAlign=middle;whiteSpace=wrap;rounded=0;" vertex="1" parent="VeLv6RaSljvd2OSAynk0-1">
          <mxGeometry x="1650" y="833" width="60" height="30" as="geometry" />
        </mxCell>
        <mxCell id="2uPIt1E3CVrj-p5gXUnj-180" value="(1,1)" style="text;html=1;align=center;verticalAlign=middle;whiteSpace=wrap;rounded=0;" vertex="1" parent="VeLv6RaSljvd2OSAynk0-1">
          <mxGeometry x="1650" y="1020" width="60" height="30" as="geometry" />
        </mxCell>
        <mxCell id="2uPIt1E3CVrj-p5gXUnj-181" value="(1,N)" style="text;html=1;align=center;verticalAlign=middle;whiteSpace=wrap;rounded=0;" vertex="1" parent="VeLv6RaSljvd2OSAynk0-1">
          <mxGeometry x="1517" y="1480" width="60" height="30" as="geometry" />
        </mxCell>
        <mxCell id="2uPIt1E3CVrj-p5gXUnj-182" value="(1,1)" style="text;html=1;align=center;verticalAlign=middle;whiteSpace=wrap;rounded=0;" vertex="1" parent="VeLv6RaSljvd2OSAynk0-1">
          <mxGeometry x="1678" y="1480" width="60" height="30" as="geometry" />
        </mxCell>
        <mxCell id="2uPIt1E3CVrj-p5gXUnj-183" value="(0,N)" style="text;html=1;align=center;verticalAlign=middle;whiteSpace=wrap;rounded=0;" vertex="1" parent="VeLv6RaSljvd2OSAynk0-1">
          <mxGeometry x="1880" y="740" width="60" height="30" as="geometry" />
        </mxCell>
        <mxCell id="2uPIt1E3CVrj-p5gXUnj-184" value="(1,1)" style="text;html=1;align=center;verticalAlign=middle;whiteSpace=wrap;rounded=0;" vertex="1" parent="VeLv6RaSljvd2OSAynk0-1">
          <mxGeometry x="1763" y="740" width="60" height="30" as="geometry" />
        </mxCell>
        <mxCell id="2uPIt1E3CVrj-p5gXUnj-185" value="(1,N)" style="text;html=1;align=center;verticalAlign=middle;whiteSpace=wrap;rounded=0;" vertex="1" parent="VeLv6RaSljvd2OSAynk0-1">
          <mxGeometry x="2480" y="930" width="60" height="30" as="geometry" />
        </mxCell>
        <mxCell id="2uPIt1E3CVrj-p5gXUnj-186" value="(1,1)" style="text;html=1;align=center;verticalAlign=middle;whiteSpace=wrap;rounded=0;" vertex="1" parent="VeLv6RaSljvd2OSAynk0-1">
          <mxGeometry x="2480" y="1060" width="60" height="30" as="geometry" />
        </mxCell>
        <mxCell id="2uPIt1E3CVrj-p5gXUnj-187" value="(0,N)" style="text;html=1;align=center;verticalAlign=middle;whiteSpace=wrap;rounded=0;" vertex="1" parent="VeLv6RaSljvd2OSAynk0-1">
          <mxGeometry x="2215" y="743" width="60" height="30" as="geometry" />
        </mxCell>
        <mxCell id="2uPIt1E3CVrj-p5gXUnj-188" value="Vencimiento" style="ellipse;whiteSpace=wrap;html=1;" vertex="1" parent="VeLv6RaSljvd2OSAynk0-1">
          <mxGeometry x="1000" y="840" width="90" height="30" as="geometry" />
        </mxCell>
        <mxCell id="2uPIt1E3CVrj-p5gXUnj-189" style="edgeStyle=orthogonalEdgeStyle;rounded=0;orthogonalLoop=1;jettySize=auto;html=1;exitX=1;exitY=0.5;exitDx=0;exitDy=0;entryX=0.091;entryY=0.987;entryDx=0;entryDy=0;entryPerimeter=0;" edge="1" parent="VeLv6RaSljvd2OSAynk0-1" source="2uPIt1E3CVrj-p5gXUnj-188" target="2uPIt1E3CVrj-p5gXUnj-21">
          <mxGeometry relative="1" as="geometry" />
        </mxCell>
        <mxCell id="2uPIt1E3CVrj-p5gXUnj-190" style="edgeStyle=orthogonalEdgeStyle;rounded=0;orthogonalLoop=1;jettySize=auto;html=1;exitX=1;exitY=0;exitDx=0;exitDy=0;entryX=0.339;entryY=0.932;entryDx=0;entryDy=0;entryPerimeter=0;" edge="1" parent="VeLv6RaSljvd2OSAynk0-1" source="2uPIt1E3CVrj-p5gXUnj-108" target="2uPIt1E3CVrj-p5gXUnj-25">
          <mxGeometry relative="1" as="geometry" />
        </mxCell>
        <mxCell id="2uPIt1E3CVrj-p5gXUnj-191" style="edgeStyle=orthogonalEdgeStyle;rounded=0;orthogonalLoop=1;jettySize=auto;html=1;exitX=1;exitY=0.5;exitDx=0;exitDy=0;entryX=0.183;entryY=0.955;entryDx=0;entryDy=0;entryPerimeter=0;" edge="1" parent="VeLv6RaSljvd2OSAynk0-1" source="2uPIt1E3CVrj-p5gXUnj-107" target="2uPIt1E3CVrj-p5gXUnj-25">
          <mxGeometry relative="1" as="geometry" />
        </mxCell>
        <mxCell id="2uPIt1E3CVrj-p5gXUnj-192" value="(1,N)" style="text;html=1;align=center;verticalAlign=middle;whiteSpace=wrap;rounded=0;" vertex="1" parent="VeLv6RaSljvd2OSAynk0-1">
          <mxGeometry x="1320" y="980" width="60" height="30" as="geometry" />
        </mxCell>
        <mxCell id="2uPIt1E3CVrj-p5gXUnj-193" value="(1,1)" style="text;html=1;align=center;verticalAlign=middle;whiteSpace=wrap;rounded=0;" vertex="1" parent="VeLv6RaSljvd2OSAynk0-1">
          <mxGeometry x="1457" y="980" width="60" height="30" as="geometry" />
        </mxCell>
        <mxCell id="2uPIt1E3CVrj-p5gXUnj-194" value="" style="endArrow=none;html=1;rounded=0;exitX=1;exitY=0.5;exitDx=0;exitDy=0;exitPerimeter=0;entryX=0;entryY=0.5;entryDx=0;entryDy=0;" edge="1" parent="VeLv6RaSljvd2OSAynk0-1" source="2uPIt1E3CVrj-p5gXUnj-196" target="2uPIt1E3CVrj-p5gXUnj-25">
          <mxGeometry relative="1" as="geometry">
            <mxPoint x="1520" y="1070" as="sourcePoint" />
            <mxPoint x="1520" y="1170" as="targetPoint" />
            <Array as="points">
              <mxPoint x="1510" y="1010" />
              <mxPoint x="1510" y="1130" />
            </Array>
          </mxGeometry>
        </mxCell>
        <mxCell id="2uPIt1E3CVrj-p5gXUnj-195" value="" style="endArrow=none;html=1;rounded=0;exitX=0.588;exitY=1.01;exitDx=0;exitDy=0;exitPerimeter=0;" edge="1" parent="VeLv6RaSljvd2OSAynk0-1" source="2uPIt1E3CVrj-p5gXUnj-21" target="2uPIt1E3CVrj-p5gXUnj-196">
          <mxGeometry relative="1" as="geometry">
            <mxPoint x="1185" y="791" as="sourcePoint" />
            <mxPoint x="1450" y="1010" as="targetPoint" />
            <Array as="points">
              <mxPoint x="1185" y="1010" />
            </Array>
          </mxGeometry>
        </mxCell>
        <mxCell id="2uPIt1E3CVrj-p5gXUnj-196" value="Incluye" style="strokeWidth=2;html=1;shape=mxgraph.flowchart.decision;whiteSpace=wrap;" vertex="1" parent="VeLv6RaSljvd2OSAynk0-1">
          <mxGeometry x="1390" y="980" width="66" height="60" as="geometry" />
        </mxCell>
        <mxCell id="2uPIt1E3CVrj-p5gXUnj-197" value="(1,1)" style="text;html=1;align=center;verticalAlign=middle;whiteSpace=wrap;rounded=0;" vertex="1" parent="VeLv6RaSljvd2OSAynk0-1">
          <mxGeometry x="2344" y="743" width="60" height="30" as="geometry" />
        </mxCell>
        <mxCell id="2uPIt1E3CVrj-p5gXUnj-198" style="edgeStyle=orthogonalEdgeStyle;rounded=0;orthogonalLoop=1;jettySize=auto;html=1;exitX=0.5;exitY=0;exitDx=0;exitDy=0;entryX=0.597;entryY=0.952;entryDx=0;entryDy=0;entryPerimeter=0;" edge="1" parent="VeLv6RaSljvd2OSAynk0-1" source="2uPIt1E3CVrj-p5gXUnj-109" target="2uPIt1E3CVrj-p5gXUnj-25">
          <mxGeometry relative="1" as="geometry" />
        </mxCell>
      </root>
    </mxGraphModel>
  </diagram>
</mxfile>
